PathFileType	4	(X/Y/Z)	C:\Users\WrightLab\Desktop\Jo\P5V11.trc
DataRate	CameraRate	NumFrames	NumMarkers	Units	OrigDataRate	OrigDataStartFrame	OrigNumFrames
100.00	100.00	       87	19	mm	100.00	704	       804
Frame#	Time	Headset_Front			Headset_Back			Headset_Left			Headset_Right			Left_Shoulder			Right_Shoulder			Sternum			C7			Left Elbow			Right Elbow			Left Wrist			Right Wrist			Left ASIS			Right ASIS			S2			Left Knee			Right Knee			Left Ankle			Right Ankle			
		X1	Y1	Z1	X2	Y2	Z2	X3	Y3	Z3	X4	Y4	Z4	X5	Y5	Z5	X6	Y6	Z6	X7	Y7	Z7	X8	Y8	Z8	X9	Y9	Z9	X10	Y10	Z10	X11	Y11	Z11	X12	Y12	Z12	X13	Y13	Z13	X14	Y14	Z14	X15	Y15	Z15	X16	Y16	Z16	X17	Y17	Z17	X18	Y18	Z18	X19	Y19	Z19	

704	7.030																															92.77571	1011.28839	1828.29724													26.21312	541.10382	1926.55823										
705	7.040																															98.76005	1009.20697	1832.61157													31.77879	539.44019	1934.21252										
706	7.050																															105.99554	1009.50580	1842.39063													37.00203	538.29150	1941.06836										
707	7.060																															112.64564	1008.75977	1849.68298													41.42223	538.28589	1948.06702										
708	7.070																															118.59058	1009.86670	1857.17615													46.06172	537.75519	1952.29858										
709	7.080																															124.75266	1010.35034	1864.45007													49.92862	539.22473	1957.08459										
710	7.090																															130.57620	1011.57037	1872.06104													54.05935	541.22241	1961.10339										
711	7.100																															137.12120	1012.39496	1878.94177													58.11432	543.20624	1965.19226										
712	7.110																															142.97580	1013.58063	1886.71375													63.14036	544.41876	1967.75818										
713	7.120																															148.51590	1014.99536	1893.53979													67.35271	545.70483	1970.34265										
714	7.130																															153.87125	1016.89044	1902.04590													71.97089	546.08923	1972.17468										
715	7.140																															159.34196	1018.28247	1908.89282													75.71915	545.92932	1973.09155										
716	7.150																															164.33362	1020.06158	1916.09619													79.25512	546.36993	1975.37402										
717	7.160																															169.58487	1021.81952	1923.49841													81.84949	546.28473	1976.67859										
718	7.170																															174.17815	1023.22211	1930.25183													84.32265	547.03583	1978.41321										
719	7.180																															179.39651	1024.48120	1936.54944													86.25014	549.10345	1981.19165										
720	7.190																															183.63243	1026.36206	1944.27209													87.52355	549.53668	1984.13049										
721	7.200																															187.66629	1028.16272	1950.15381													88.24130	549.78693	1987.76074										
722	7.210																															191.70619	1029.71753	1958.18164													88.51357	549.22522	1991.03394										
723	7.220																															195.85365	1030.82861	1963.72717													88.51093	549.15491	1995.65320										
724	7.230																															200.03395	1031.21204	1968.86047													87.65241	548.42419	1997.54211										
725	7.240																															203.23921	1033.31238	1975.90747													87.60580	549.45587	2002.46631										
726	7.250																															206.71291	1034.33630	1982.62830													86.69743	549.49109	2006.23584										
727	7.260																															210.69075	1035.19250	1987.66907													86.29688	549.63318	2009.25049										
728	7.270																															213.40167	1035.98926	1994.07507													85.17026	550.82129	2012.25793										
729	7.280																															216.62085	1036.56104	1998.51404													84.83228	550.56812	2013.11682										
730	7.290																															218.92928	1036.99695	2004.33936													85.82894	550.59131	2014.96155										
731	7.300																															221.88925	1036.76782	2009.01282													85.04942	552.01172	2017.34277										
732	7.310																															223.88043	1037.72180	2014.38074													84.80397	552.01617	2017.70166										
733	7.320																															225.93500	1037.72009	2019.06323													85.14596	552.03259	2017.43213										
734	7.330																															227.92384	1038.01184	2022.66211													85.57462	552.23181	2016.84033										
735	7.340																															229.79868	1037.67480	2027.38513													87.00003	551.06470	2016.48682										
736	7.350																															231.92094	1038.07788	2031.79175													86.35703	550.36444	2015.08313										
737	7.360																															232.92795	1038.07324	2035.46790													88.00187	548.58765	2013.69336										
738	7.370																															234.30009	1038.32715	2039.55127													88.66558	548.80048	2012.74792										
739	7.380																															235.91087	1038.13733	2042.87244													87.65485	546.81232	2008.86133										
740	7.390																															236.81241	1037.30615	2045.79138													88.16770	547.34412	2007.72180										
741	7.400																															238.03514	1037.78821	2049.16968													88.85529	547.73505	2006.62256										
742	7.410																															239.28497	1037.09912	2051.32861													89.67017	546.95367	2005.43677										
743	7.420																															239.37204	1037.05432	2054.65576													90.17446	547.27661	2004.69202										
744	7.430																															240.29291	1036.53528	2057.72144													90.55805	547.40887	2004.32727										
745	7.440																															240.44038	1036.12317	2059.41602													90.34841	548.64734	2004.77698										
746	7.450																															240.87950	1035.85974	2061.46216													92.11948	549.12146	2005.50671										
747	7.460																															241.14330	1035.78345	2064.54224													92.89005	550.09998	2007.84448										
748	7.470																															241.31541	1035.01770	2066.20459													94.46848	549.05536	2006.56702										
749	7.480																															240.90935	1034.16113	2068.35083													95.93117	549.36090	2008.08740										
750	7.490																															240.37410	1034.35352	2069.97729													95.59050	550.44647	2008.38806										
751	7.500																															240.51620	1033.70544	2071.65698													96.16938	550.66107	2009.43494										
752	7.510																															240.23027	1033.55249	2073.59839													97.66451	551.14667	2010.58813										
753	7.520																															240.41122	1033.22083	2074.67480													99.21976	551.84467	2012.34106										
754	7.530																															239.68002	1033.44055	2076.71777													100.09321	551.92249	2013.02722										
755	7.540																															239.65596	1033.14661	2077.35449													101.68250	552.29193	2014.91638										
756	7.550																															239.02794	1033.11829	2078.86182													103.68143	552.11548	2016.11084										
757	7.560																															238.50377	1033.11560	2080.27490													104.57476	552.24255	2017.32922										
758	7.570																															238.29465	1033.22302	2080.48047													106.73065	553.04193	2020.17480										
759	7.580																															237.67891	1033.69519	2081.28833													108.66861	552.27136	2019.55127										
760	7.590																															237.25026	1033.67358	2082.17041													110.60651	553.19794	2022.00244										
761	7.600																															236.84372	1033.85718	2082.79468													112.56129	552.39142	2022.61206										
762	7.610																															236.44511	1034.12878	2083.30981													114.13715	552.36957	2025.33447										
763	7.620																															235.97520	1034.12341	2084.29004													116.31290	552.15912	2026.46301										
764	7.630																															235.53709	1033.89722	2085.08765													117.84527	552.20215	2028.53284										
765	7.640																															234.82993	1033.81421	2086.23242													120.69433	551.35535	2029.56799										
766	7.650																															234.60011	1033.73950	2086.20825													122.36562	551.83356	2031.91760										
767	7.660																															234.19795	1033.39380	2086.46802													124.81506	551.42786	2033.40857										
768	7.670																															233.52229	1033.19421	2086.93823													127.22743	553.81293	2040.08618										
769	7.680																															232.96826	1033.04663	2086.99683													129.52954	553.69690	2041.36926										
770	7.690																															232.48787	1032.81409	2087.10913													132.27623	552.98053	2041.74512										
771	7.700																															231.66837	1032.97278	2087.90405													134.06187	553.18170	2044.54712										
772	7.710																															231.35455	1032.60352	2087.92456													137.08086	553.13055	2048.09473										
773	7.720																															231.17477	1032.04102	2088.08594													138.23473	552.87195	2047.85901										
774	7.730																															230.54063	1032.00195	2088.96313													140.63379	553.82635	2052.12573										
775	7.740																															230.52615	1031.93164	2088.92285													141.12549	553.62073	2052.41211										
776	7.750																															230.26994	1031.97925	2089.63379													143.74260	554.13367	2056.01611										
777	7.760																															230.27840	1031.95972	2089.67798													144.48907	556.28345	2059.57593										
778	7.770																															230.16019	1031.98267	2090.06763													145.63078	555.60992	2060.75513										
779	7.780																															229.93669	1032.04272	2090.29663													145.92131	555.41345	2061.22168										
780	7.790																															229.92883	1031.99561	2090.27783													146.01630	555.09985	2061.72900										
781	7.800																															229.93895	1031.99121	2090.32422													149.47476	555.42749	2063.77612										
782	7.810																															229.93628	1031.96375	2090.32178													150.14334	555.57690	2063.23486										
783	7.820																															229.94589	1031.95422	2090.36743													150.33827	555.54840	2063.30225										
784	7.830																															229.97679	1032.00134	2090.48828													150.90692	555.65002	2062.83789										
785	7.840																															230.02480	1032.09009	2090.67065													151.85178	555.67163	2062.06738										
786	7.850																															230.50313	1031.90405	2090.39160													152.23119	555.79163	2061.62231										
787	7.860																															230.60175	1032.10059	2090.76172													152.82159	554.46460	2059.47363										
788	7.870																															230.91463	1032.10693	2090.82520													153.86871	553.19019	2056.76221										
789	7.880																															231.60532	1031.83887	2090.37427													153.90579	553.16595	2056.54541										
790	7.890																															231.73537	1032.11121	2090.85864													152.47827	553.00244	2055.09521										
